<?xml version="1.0" encoding="UTF-8" standalone="no"?>
<!DOCTYPE svg PUBLIC "-//W3C//DTD SVG 1.1//EN" "http://www.w3.org/Graphics/SVG/1.1/DTD/svg11.dtd">
<svg width="100%" height="100%" viewBox="0 0 150 150" version="1.1" xmlns="http://www.w3.org/2000/svg" xmlns:xlink="http://www.w3.org/1999/xlink" xml:space="preserve" xmlns:serif="http://www.serif.com/" style="fill-rule:evenodd;clip-rule:evenodd;stroke-linejoin:round;stroke-miterlimit:1.41421;">
    <g transform="matrix(1,0,0,1,11.0771,-13.1361)">
        <path d="M9.064,-6.924L154.983,138.995L154.276,139.702L8.357,-6.217L9.064,-6.924ZM28.863,-26.723L29.57,-27.43L175.489,118.489L174.782,119.196L28.863,-26.723Z" style="fill:rgb(102,16,242);"/>
    </g>
    <g transform="matrix(0.97279,0.97279,-0.711411,0.711411,39.2331,-39.1516)">
        <rect x="0" y="0" width="150" height="25.843" style="fill:rgb(102,16,242);"/>
    </g>
    <g transform="matrix(0.707107,0.707107,-0.707107,0.707107,128.302,-51.4893)">
        <path d="M9.699,88.615L12.047,81.385L13.812,81.385L10.486,90.627L8.931,90.627L5.617,81.385L7.376,81.385L9.699,88.615Z" style="fill:white;fill-rule:nonzero;"/>
        <path d="M16.345,90.627L14.802,90.627L14.802,83.759L16.345,83.759L16.345,90.627ZM14.707,81.975C14.707,81.739 14.782,81.542 14.932,81.385C15.083,81.229 15.297,81.15 15.577,81.15C15.856,81.15 16.072,81.229 16.224,81.385C16.376,81.542 16.453,81.739 16.453,81.975C16.453,82.208 16.376,82.402 16.224,82.556C16.072,82.711 15.856,82.788 15.577,82.788C15.297,82.788 15.083,82.711 14.932,82.556C14.782,82.402 14.707,82.208 14.707,81.975Z" style="fill:white;fill-rule:nonzero;"/>
        <path d="M21.048,90.754C20.071,90.754 19.278,90.446 18.671,89.831C18.064,89.215 17.76,88.395 17.76,87.371L17.76,87.181C17.76,86.495 17.893,85.882 18.157,85.343C18.421,84.803 18.793,84.383 19.271,84.083C19.749,83.782 20.282,83.632 20.871,83.632C21.806,83.632 22.528,83.931 23.038,84.527C23.548,85.124 23.803,85.968 23.803,87.06L23.803,87.682L19.315,87.682C19.362,88.249 19.551,88.698 19.884,89.028C20.216,89.358 20.634,89.523 21.137,89.523C21.844,89.523 22.419,89.237 22.864,88.666L23.695,89.459C23.42,89.87 23.053,90.188 22.594,90.415C22.135,90.641 21.62,90.754 21.048,90.754ZM20.864,84.87C20.441,84.87 20.099,85.018 19.839,85.314C19.579,85.611 19.413,86.023 19.341,86.552L22.28,86.552L22.28,86.438C22.246,85.922 22.108,85.531 21.867,85.267C21.626,85.002 21.292,84.87 20.864,84.87Z" style="fill:white;fill-rule:nonzero;"/>
        <path d="M31.033,88.501L32.125,83.759L33.629,83.759L31.757,90.627L30.487,90.627L29.015,85.911L27.567,90.627L26.298,90.627L24.419,83.759L25.923,83.759L27.034,88.45L28.443,83.759L29.605,83.759L31.033,88.501Z" style="fill:white;fill-rule:nonzero;"/>
        <path d="M37.609,87.13C37.609,86.457 37.743,85.851 38.009,85.311C38.276,84.772 38.65,84.357 39.133,84.067C39.615,83.777 40.17,83.632 40.796,83.632C41.723,83.632 42.475,83.931 43.053,84.527C43.63,85.124 43.942,85.915 43.989,86.901L43.995,87.263C43.995,87.94 43.865,88.545 43.605,89.079C43.345,89.612 42.972,90.024 42.488,90.316C42.003,90.608 41.443,90.754 40.809,90.754C39.84,90.754 39.064,90.432 38.482,89.786C37.9,89.141 37.609,88.281 37.609,87.206L37.609,87.13ZM39.152,87.263C39.152,87.97 39.298,88.523 39.59,88.923C39.882,89.323 40.288,89.523 40.809,89.523C41.329,89.523 41.734,89.32 42.024,88.913C42.314,88.507 42.459,87.913 42.459,87.13C42.459,86.436 42.31,85.886 42.011,85.479C41.713,85.073 41.308,84.87 40.796,84.87C40.292,84.87 39.892,85.07 39.596,85.47C39.3,85.87 39.152,86.468 39.152,87.263Z" style="fill:white;fill-rule:nonzero;"/>
        <path d="M46.731,83.759L46.775,84.553C47.283,83.939 47.95,83.632 48.775,83.632C50.205,83.632 50.933,84.451 50.959,86.089L50.959,90.627L49.416,90.627L49.416,86.178C49.416,85.742 49.322,85.419 49.134,85.21C48.945,85 48.637,84.895 48.21,84.895C47.588,84.895 47.125,85.177 46.82,85.74L46.82,90.627L45.277,90.627L45.277,83.759L46.731,83.759Z" style="fill:white;fill-rule:nonzero;"/>
        <path d="M63,89.428C62.666,89.864 62.202,90.194 61.61,90.418C61.017,90.642 60.345,90.754 59.591,90.754C58.817,90.754 58.131,90.579 57.535,90.227C56.938,89.876 56.478,89.374 56.154,88.72C55.83,88.066 55.662,87.303 55.649,86.432L55.649,85.708C55.649,84.311 55.984,83.221 56.652,82.436C57.321,81.651 58.254,81.258 59.452,81.258C60.48,81.258 61.297,81.513 61.902,82.023C62.507,82.533 62.871,83.266 62.994,84.223L61.419,84.223C61.242,83.11 60.596,82.553 59.483,82.553C58.764,82.553 58.217,82.812 57.843,83.33C57.468,83.848 57.274,84.608 57.262,85.61L57.262,86.32C57.262,87.318 57.472,88.093 57.893,88.644C58.314,89.196 58.899,89.472 59.648,89.472C60.469,89.472 61.053,89.286 61.4,88.913L61.4,87.104L59.496,87.104L59.496,85.886L63,85.886L63,89.428Z" style="fill:white;fill-rule:nonzero;"/>
        <path d="M66.256,90.627L64.714,90.627L64.714,83.759L66.256,83.759L66.256,90.627ZM64.619,81.975C64.619,81.739 64.694,81.542 64.844,81.385C64.994,81.229 65.209,81.15 65.488,81.15C65.768,81.15 65.983,81.229 66.136,81.385C66.288,81.542 66.364,81.739 66.364,81.975C66.364,82.208 66.288,82.402 66.136,82.556C65.983,82.711 65.768,82.788 65.488,82.788C65.209,82.788 64.994,82.711 64.844,82.556C64.694,82.402 64.619,82.208 64.619,81.975Z" style="fill:white;fill-rule:nonzero;"/>
        <path d="M69.868,82.09L69.868,83.759L71.081,83.759L71.081,84.902L69.868,84.902L69.868,88.736C69.868,88.998 69.92,89.187 70.024,89.304C70.127,89.42 70.313,89.478 70.579,89.478C70.757,89.478 70.937,89.457 71.119,89.415L71.119,90.608C70.767,90.706 70.429,90.754 70.103,90.754C68.918,90.754 68.326,90.1 68.326,88.793L68.326,84.902L67.196,84.902L67.196,83.759L68.326,83.759L68.326,82.09L69.868,82.09Z" style="fill:white;fill-rule:nonzero;"/>
        <path d="M79.745,90.627L78.146,90.627L78.146,86.527L74.013,86.527L74.013,90.627L72.407,90.627L72.407,81.385L74.013,81.385L74.013,85.232L78.146,85.232L78.146,81.385L79.745,81.385L79.745,90.627Z" style="fill:white;fill-rule:nonzero;"/>
        <path d="M85.655,89.954C85.202,90.488 84.559,90.754 83.725,90.754C82.98,90.754 82.416,90.536 82.033,90.1C81.65,89.665 81.459,89.034 81.459,88.209L81.459,83.759L83.001,83.759L83.001,88.19C83.001,89.062 83.363,89.497 84.087,89.497C84.836,89.497 85.342,89.229 85.604,88.691L85.604,83.759L87.147,83.759L87.147,90.627L85.693,90.627L85.655,89.954Z" style="fill:white;fill-rule:nonzero;"/>
        <path d="M94.745,87.263C94.745,88.329 94.507,89.178 94.031,89.808C93.554,90.439 92.9,90.754 92.066,90.754C91.262,90.754 90.636,90.464 90.187,89.885L90.111,90.627L88.714,90.627L88.714,80.877L90.257,80.877L90.257,84.419C90.701,83.895 91.3,83.632 92.053,83.632C92.891,83.632 93.549,83.943 94.027,84.565C94.506,85.187 94.745,86.057 94.745,87.174L94.745,87.263ZM93.202,87.13C93.202,86.385 93.071,85.826 92.809,85.454C92.546,85.082 92.165,84.895 91.666,84.895C90.997,84.895 90.528,85.187 90.257,85.771L90.257,88.602C90.532,89.199 91.006,89.497 91.679,89.497C92.161,89.497 92.534,89.318 92.796,88.958C93.058,88.598 93.194,88.054 93.202,87.327L93.202,87.13Z" style="fill:white;fill-rule:nonzero;"/>
    </g>
</svg>
