<?xml version="1.0" encoding="UTF-8" standalone="no"?>
<!DOCTYPE svg PUBLIC "-//W3C//DTD SVG 1.1//EN" "http://www.w3.org/Graphics/SVG/1.1/DTD/svg11.dtd">
<svg width="100%" height="100%" viewBox="0 0 128 128" version="1.1" xmlns="http://www.w3.org/2000/svg" xmlns:xlink="http://www.w3.org/1999/xlink" xml:space="preserve" xmlns:serif="http://www.serif.com/" style="fill-rule:evenodd;clip-rule:evenodd;stroke-linejoin:round;stroke-miterlimit:1.41421;">
    <g transform="matrix(2.66667,0,0,2.66667,1.42109e-14,1.42109e-14)">
        <path d="M48,9C48,4.033 43.967,0 39,0L9,0C4.033,0 0,4.033 0,9L0,39C0,43.967 4.033,48 9,48L39,48C43.967,48 48,43.967 48,39L48,9Z" style="fill:url(#_Linear1);"/>
    </g>
    <g transform="matrix(1,0,0,1,40.625,72.375)">
        <path d="M23.375,-50.375C18.672,-50.375 14.297,-49.199 10.25,-46.848C6.203,-44.496 3.004,-41.297 0.652,-37.25C-1.699,-33.203 -2.875,-28.828 -2.875,-24.125C-2.875,-19.422 -1.699,-15.047 0.652,-11C3.004,-6.953 6.203,-3.754 10.25,-1.402C14.297,0.949 18.672,2.125 23.375,2.125C28.078,2.125 32.453,0.949 36.5,-1.402C40.547,-3.754 43.746,-6.953 46.098,-11C48.449,-15.047 49.625,-19.422 49.625,-24.125C49.625,-28.828 48.449,-33.203 46.098,-37.25C43.746,-41.297 40.547,-44.496 36.5,-46.848C32.453,-49.199 28.078,-50.375 23.375,-50.375ZM53.398,4.422C56.898,5.297 59.77,7.156 62.012,10C64.254,12.844 65.375,16.07 65.375,19.68L65.375,25.75C65.375,27.937 64.609,29.797 63.078,31.328C61.547,32.859 59.687,33.625 57.5,33.625L-10.75,33.625C-12.937,33.625 -14.797,32.859 -16.328,31.328C-17.859,29.797 -18.625,27.937 -18.625,25.75L-18.625,19.68C-18.625,16.07 -17.504,12.844 -15.262,10C-13.02,7.156 -10.148,5.297 -6.648,4.422L5,1.469C10.141,5.188 15.938,7.156 22.391,7.375C29.5,7.594 35.953,5.625 41.75,1.469L53.398,4.422Z" style="fill:white;fill-rule:nonzero;"/>
    </g>
    <defs>
        <linearGradient id="_Linear1" x1="0" y1="0" x2="1" y2="0" gradientUnits="userSpaceOnUse" gradientTransform="matrix(-31.125,-31.125,31.125,-31.125,39.5,39.5)"><stop offset="0" style="stop-color:rgb(94,53,177);stop-opacity:1"/><stop offset="1" style="stop-color:rgb(103,58,183);stop-opacity:1"/></linearGradient>
    </defs>
</svg>
