<?xml version="1.0" encoding="UTF-8" standalone="no"?>
<!DOCTYPE svg PUBLIC "-//W3C//DTD SVG 1.1//EN" "http://www.w3.org/Graphics/SVG/1.1/DTD/svg11.dtd">
<svg width="100%" height="100%" viewBox="0 0 128 128" version="1.1" xmlns="http://www.w3.org/2000/svg" xmlns:xlink="http://www.w3.org/1999/xlink" xml:space="preserve" xmlns:serif="http://www.serif.com/" style="fill-rule:evenodd;clip-rule:evenodd;stroke-linejoin:round;stroke-miterlimit:1.41421;">
    <path d="M128,32C128,14.339 113.661,0 96,0L32,0C14.339,0 0,14.339 0,32L0,96C0,113.661 14.339,128 32,128L96,128C113.661,128 128,113.661 128,96L128,32Z" style="fill:url(#_Linear1);"/>
    <g transform="matrix(1,0,0,1,-11.4322,36.5593)">
        <path d="M75.432,-20.559C70.057,-20.559 65.057,-19.216 60.432,-16.528C55.807,-13.841 52.151,-10.184 49.463,-5.559C46.776,-0.934 45.432,4.066 45.432,9.441C45.432,14.816 46.776,19.816 49.463,24.441C52.151,29.066 55.807,32.722 60.432,35.409C65.057,38.097 70.057,39.441 75.432,39.441C80.807,39.441 85.807,38.097 90.432,35.409C95.057,32.722 98.713,29.066 101.401,24.441C104.088,19.816 105.432,14.816 105.432,9.441C105.432,4.066 104.088,-0.934 101.401,-5.559C98.713,-10.184 95.057,-13.841 90.432,-16.528C85.807,-19.216 80.807,-20.559 75.432,-20.559ZM109.745,42.066C113.745,43.066 117.026,45.191 119.588,48.441C122.151,51.691 123.432,55.378 123.432,59.503L123.432,66.441C123.432,68.941 122.557,71.066 120.807,72.816C119.057,74.566 116.932,75.441 114.432,75.441L36.432,75.441C33.932,75.441 31.807,74.566 30.057,72.816C28.307,71.066 27.432,68.941 27.432,66.441L27.432,59.503C27.432,55.378 28.713,51.691 31.276,48.441C33.838,45.191 37.12,43.066 41.12,42.066L54.432,38.691C60.307,42.941 66.932,45.191 74.307,45.441C82.432,45.691 89.807,43.441 96.432,38.691L109.745,42.066Z" style="fill:white;fill-rule:nonzero;"/>
    </g>
    <defs>
        <linearGradient id="_Linear1" x1="0" y1="0" x2="1" y2="0" gradientUnits="userSpaceOnUse" gradientTransform="matrix(-96,-96,96,-96,112,112)"><stop offset="0" style="stop-color:rgb(84,110,122);stop-opacity:1"/><stop offset="1" style="stop-color:rgb(96,125,139);stop-opacity:1"/></linearGradient>
    </defs>
</svg>
